<?xml version="1.0" encoding="iso-8859-1"?>
<!-- Generator: Adobe Illustrator 19.0.0, SVG Export Plug-In . SVG Version: 6.00 Build 0)  -->
<svg xmlns="http://www.w3.org/2000/svg" xmlns:xlink="http://www.w3.org/1999/xlink" version="1.1" id="Capa_1" x="0px" y="0px" viewBox="0 0 490.584 450.584" style="enable-background:new 0 0 490.584 410.584;" xml:space="preserve" width="14px" height="14px">
<g>
	<g>
		<path d="M273.944,401.368c-15.636-15.591-40.94-15.591-56.576,0c-15.619,15.623-15.616,40.95,0.007,56.569    c15.623,15.619,40.95,15.616,56.569-0.007C289.56,442.309,289.56,416.988,273.944,401.368z M262.632,446.632    c-9.376,9.37-24.572,9.365-33.941-0.011c-9.37-9.376-9.365-24.572,0.011-33.941c9.371-9.365,24.559-9.365,33.93,0    C271.985,422.065,271.985,437.247,262.632,446.632z" stroke="#FFFFFF" stroke-width="22" fill="#FFFFFF"/>
	</g>
</g>
<g>
	<g>
		<path d="M491.312,11.312L480,0l-84.912,84.912C262.86,28.159,109.885,51.313,0.376,144.656l10.448,12.12    C113.933,68.865,257.48,45.838,382.912,97.088l-75.856,75.856c-20.119-4.771-40.724-7.187-61.4-7.2    c-70.043-0.222-137.264,27.592-186.672,77.24l11.312,11.312c58.468-58.415,142.198-83.855,223.28-67.84l-100.952,100.92    c-20.45,7.53-39.026,19.403-54.448,34.8L148,332L0,480l11.312,11.312l190.064-190.064c49.13-16.977,103.64-4.464,140.448,32.24    l11.312-11.312c-34.128-34.067-82.419-49.881-130.088-42.6l88.8-88.8c41.291,11.326,78.917,33.219,109.168,63.52l11.312-11.312    c-30.007-30.123-66.891-52.494-107.472-65.184l73.856-73.856c29.581,13.767,57.118,31.554,81.832,52.856l10.448-12.12    c-24.376-20.977-51.382-38.686-80.336-52.68L491.312,11.312z" stroke="#FFFFFF" stroke-width="22" fill="#FFFFFF"/>
	</g>
</g>
</svg>
